<?xml version="1.0" standalone="no"?>
<!DOCTYPE svg PUBLIC "-//W3C//DTD SVG 20010904//EN"
 "http://www.w3.org/TR/2001/REC-SVG-20010904/DTD/svg10.dtd">
<svg version="1.0" xmlns="http://www.w3.org/2000/svg"
 width="748.000000pt" height="748.000000pt" viewBox="0 0 748.000000 748.000000"
 preserveAspectRatio="xMidYMid meet">

<g transform="translate(0.000000,748.000000) scale(0.100000,-0.100000)"
fill="#000000" stroke="none">
<path d="M3475 7464 c-16 -2 -79 -9 -140 -15 -383 -38 -825 -167 -1199 -349
-1080 -527 -1858 -1546 -2070 -2710 -43 -239 -51 -339 -51 -650 0 -311 8 -411
51 -650 152 -831 597 -1605 1249 -2167 835 -721 1906 -1035 2978 -873 1296
196 2437 1113 2922 2348 175 446 255 867 255 1342 0 475 -80 896 -255 1342
-376 958 -1159 1745 -2116 2126 -299 119 -590 195 -911 238 -116 15 -636 29
-713 18z m705 -418 c254 -37 412 -73 623 -142 495 -161 935 -431 1302 -799
478 -478 796 -1090 914 -1760 41 -233 46 -296 46 -605 0 -309 -5 -372 -46
-605 -80 -452 -251 -880 -505 -1260 -103 -155 -131 -192 -137 -185 -2 3 -27
50 -56 104 -162 307 -452 654 -736 881 -257 206 -569 382 -868 490 l-89 32 96
68 c365 258 622 649 718 1089 19 87 22 131 22 316 0 186 -3 229 -22 320 -101
466 -364 854 -761 1121 -292 197 -600 292 -941 292 -341 0 -649 -95 -941 -292
-397 -267 -660 -655 -761 -1121 -19 -91 -22 -134 -22 -320 0 -185 3 -229 22
-316 96 -440 353 -831 718 -1089 l96 -68 -89 -32 c-299 -108 -611 -284 -868
-490 -284 -227 -574 -574 -736 -881 -29 -54 -54 -101 -56 -104 -6 -7 -34 30
-137 185 -291 435 -457 888 -538 1465 -18 129 -18 671 0 800 37 263 78 449
148 663 161 495 431 935 799 1302 164 165 307 281 500 410 439 292 943 475
1465 534 52 6 111 13 130 15 87 10 610 -3 710 -18z m-191 -1062 c408 -70 753
-321 936 -680 149 -292 186 -661 100 -998 -99 -390 -390 -721 -760 -866 -631
-246 -1335 -26 -1666 522 -126 208 -189 447 -189 715 0 382 135 711 396 963
220 213 485 329 829 364 68 7 264 -4 354 -20z m137 -3073 c380 -57 721 -188
1029 -394 277 -184 551 -468 727 -754 60 -96 156 -282 188 -363 l20 -50 -118
-103 c-357 -313 -733 -529 -1169 -671 -214 -70 -400 -111 -663 -148 -129 -18
-671 -18 -800 0 -364 51 -647 127 -944 254 -331 141 -667 359 -940 610 l-69
64 75 155 c134 277 263 462 468 672 185 191 359 325 575 444 272 150 608 258
915 292 52 6 111 13 130 15 89 11 451 -4 576 -23z"/>
</g>
</svg>
