<?xml version="1.0" standalone="no"?>
<!DOCTYPE svg PUBLIC "-//W3C//DTD SVG 20010904//EN"
 "http://www.w3.org/TR/2001/REC-SVG-20010904/DTD/svg10.dtd">
<svg version="1.0" xmlns="http://www.w3.org/2000/svg"
 width="20.000000pt" height="20.000000pt" viewBox="0 0 20.000000 20.000000"
 preserveAspectRatio="xMidYMid meet">

<g transform="translate(0.000000,20.000000) scale(0.100000,-0.100000)"
fill="#000000" stroke="none">
<path d="M63 174 c-22 -22 -25 -32 -20 -67 5 -36 2 -46 -20 -69 -34 -36 -21
-49 15 -15 23 22 33 25 69 20 35 -5 45 -2 67 20 34 34 34 79 1 112 -33 33 -78
33 -112 -1z m102 -9 c14 -13 25 -33 25 -45 0 -28 -43 -70 -71 -70 -30 0 -69
38 -69 67 0 30 42 73 70 73 12 0 32 -11 45 -25z"/>
</g>
</svg>
